<mxfile host="app.diagrams.net" modified="2023-03-14T16:20:40.835Z" agent="5.0 (Windows NT 10.0; Win64; x64) AppleWebKit/537.36 (KHTML, like Gecko) Chrome/110.0.0.0 Safari/537.36 Edg/110.0.1587.63" etag="Ss-1wPyQq01ZWNq2grxL" version="21.0.6" type="github">
  <diagram name="第 1 页" id="NcBIyc8STz-vyo-N5nRD">
    <mxGraphModel dx="209" dy="212" grid="0" gridSize="10" guides="1" tooltips="1" connect="1" arrows="1" fold="1" page="1" pageScale="1" pageWidth="827" pageHeight="1169" math="0" shadow="0">
      <root>
        <mxCell id="0" />
        <mxCell id="1" parent="0" />
        <mxCell id="zUjpwffhDSkr7Yevzrmo-1" value="r1" style="rounded=0;whiteSpace=wrap;html=1;strokeWidth=1;fontSize=12;fillColor=#dae8fc;strokeColor=#6c8ebf;" vertex="1" parent="1">
          <mxGeometry x="143" y="165" width="56" height="16" as="geometry" />
        </mxCell>
        <mxCell id="zUjpwffhDSkr7Yevzrmo-15" style="edgeStyle=orthogonalEdgeStyle;rounded=0;orthogonalLoop=1;jettySize=auto;html=1;entryX=0.5;entryY=0;entryDx=0;entryDy=0;strokeWidth=1;fontSize=12;" edge="1" parent="1" source="zUjpwffhDSkr7Yevzrmo-2" target="zUjpwffhDSkr7Yevzrmo-3">
          <mxGeometry relative="1" as="geometry" />
        </mxCell>
        <mxCell id="zUjpwffhDSkr7Yevzrmo-2" value="r3" style="rounded=0;whiteSpace=wrap;html=1;strokeWidth=1;fontSize=12;fillColor=#dae8fc;strokeColor=#6c8ebf;" vertex="1" parent="1">
          <mxGeometry x="143" y="193" width="56" height="16" as="geometry" />
        </mxCell>
        <mxCell id="zUjpwffhDSkr7Yevzrmo-3" value="r5" style="rounded=0;whiteSpace=wrap;html=1;strokeWidth=1;fontSize=12;fillColor=#dae8fc;strokeColor=#6c8ebf;" vertex="1" parent="1">
          <mxGeometry x="143" y="241" width="56" height="16" as="geometry" />
        </mxCell>
        <mxCell id="zUjpwffhDSkr7Yevzrmo-14" style="edgeStyle=orthogonalEdgeStyle;rounded=0;orthogonalLoop=1;jettySize=auto;html=1;exitX=0.25;exitY=0;exitDx=0;exitDy=0;entryX=1;entryY=0.5;entryDx=0;entryDy=0;strokeWidth=1;fontSize=12;" edge="1" parent="1" source="zUjpwffhDSkr7Yevzrmo-4" target="zUjpwffhDSkr7Yevzrmo-7">
          <mxGeometry relative="1" as="geometry">
            <Array as="points">
              <mxPoint x="211" y="241" />
              <mxPoint x="211" y="223" />
            </Array>
          </mxGeometry>
        </mxCell>
        <mxCell id="zUjpwffhDSkr7Yevzrmo-4" value="r4" style="rounded=0;whiteSpace=wrap;html=1;strokeWidth=1;fontSize=12;fillColor=#fff2cc;strokeColor=#d6b656;" vertex="1" parent="1">
          <mxGeometry x="199" y="241" width="56" height="16" as="geometry" />
        </mxCell>
        <mxCell id="zUjpwffhDSkr7Yevzrmo-12" value="" style="edgeStyle=orthogonalEdgeStyle;rounded=0;orthogonalLoop=1;jettySize=auto;html=1;strokeWidth=1;fontSize=12;" edge="1" parent="1" source="zUjpwffhDSkr7Yevzrmo-5" target="zUjpwffhDSkr7Yevzrmo-4">
          <mxGeometry relative="1" as="geometry" />
        </mxCell>
        <mxCell id="zUjpwffhDSkr7Yevzrmo-5" value="r2" style="rounded=0;whiteSpace=wrap;html=1;strokeWidth=1;fontSize=12;" vertex="1" parent="1">
          <mxGeometry x="199" y="193" width="56" height="16" as="geometry" />
        </mxCell>
        <mxCell id="zUjpwffhDSkr7Yevzrmo-6" value="r0" style="rounded=0;whiteSpace=wrap;html=1;strokeWidth=1;fontSize=12;" vertex="1" parent="1">
          <mxGeometry x="199" y="165" width="56" height="16" as="geometry" />
        </mxCell>
        <mxCell id="zUjpwffhDSkr7Yevzrmo-7" value="C" style="whiteSpace=wrap;html=1;strokeWidth=1;fontSize=12;fillColor=#fff2cc;strokeColor=#d6b656;" vertex="1" parent="1">
          <mxGeometry x="184" y="215" width="15" height="15" as="geometry" />
        </mxCell>
        <mxCell id="zUjpwffhDSkr7Yevzrmo-8" value="+" style="text;html=1;align=center;verticalAlign=middle;resizable=0;points=[];autosize=1;strokeColor=none;fillColor=none;strokeWidth=1;fontSize=12;" vertex="1" parent="1">
          <mxGeometry x="216" y="175" width="25" height="26" as="geometry" />
        </mxCell>
        <mxCell id="zUjpwffhDSkr7Yevzrmo-11" value="+" style="text;html=1;align=center;verticalAlign=middle;resizable=0;points=[];autosize=1;strokeColor=none;fillColor=none;strokeWidth=1;fontSize=12;" vertex="1" parent="1">
          <mxGeometry x="159.5" y="175" width="25" height="26" as="geometry" />
        </mxCell>
        <mxCell id="zUjpwffhDSkr7Yevzrmo-16" value="&lt;font style=&quot;font-size: 11px;&quot;&gt;C为进位位&lt;/font&gt;" style="text;html=1;align=center;verticalAlign=middle;resizable=0;points=[];autosize=1;strokeColor=none;fillColor=none;" vertex="1" parent="1">
          <mxGeometry x="159.5" y="257" width="75" height="26" as="geometry" />
        </mxCell>
        <mxCell id="zUjpwffhDSkr7Yevzrmo-19" value="" style="shape=curlyBracket;whiteSpace=wrap;html=1;rounded=1;flipH=1;labelPosition=right;verticalLabelPosition=middle;align=left;verticalAlign=middle;rotation=-90;" vertex="1" parent="1">
          <mxGeometry x="220.75" y="125.5" width="12.5" height="55.5" as="geometry" />
        </mxCell>
        <mxCell id="zUjpwffhDSkr7Yevzrmo-21" value="" style="shape=curlyBracket;whiteSpace=wrap;html=1;rounded=1;flipH=1;labelPosition=right;verticalLabelPosition=middle;align=left;verticalAlign=middle;rotation=-90;" vertex="1" parent="1">
          <mxGeometry x="164.75" y="125.5" width="12.5" height="55.5" as="geometry" />
        </mxCell>
        <mxCell id="zUjpwffhDSkr7Yevzrmo-22" value="低16位" style="text;html=1;align=center;verticalAlign=middle;resizable=0;points=[];autosize=1;strokeColor=none;fillColor=none;" vertex="1" parent="1">
          <mxGeometry x="199" y="125.5" width="55" height="26" as="geometry" />
        </mxCell>
        <mxCell id="zUjpwffhDSkr7Yevzrmo-25" value="r0" style="rounded=0;whiteSpace=wrap;html=1;strokeWidth=1;fontSize=12;fillColor=#fff2cc;strokeColor=#d6b656;" vertex="1" parent="1">
          <mxGeometry x="199" y="165" width="56" height="16" as="geometry" />
        </mxCell>
        <mxCell id="zUjpwffhDSkr7Yevzrmo-26" value="r2" style="rounded=0;whiteSpace=wrap;html=1;strokeWidth=1;fontSize=12;fillColor=#fff2cc;strokeColor=#d6b656;" vertex="1" parent="1">
          <mxGeometry x="199" y="193" width="56" height="16" as="geometry" />
        </mxCell>
        <mxCell id="zUjpwffhDSkr7Yevzrmo-27" value="高16位" style="text;html=1;align=center;verticalAlign=middle;resizable=0;points=[];autosize=1;strokeColor=none;fillColor=none;" vertex="1" parent="1">
          <mxGeometry x="143" y="125.5" width="55" height="26" as="geometry" />
        </mxCell>
      </root>
    </mxGraphModel>
  </diagram>
</mxfile>
